<?xml version="1.0" encoding="utf-8"?>
<!-- Generator: Adobe Illustrator 24.0.1, SVG Export Plug-In . SVG Version: 6.00 Build 0)  -->
<svg version="1.1" id="Layer_1" xmlns="http://www.w3.org/2000/svg" xmlns:xlink="http://www.w3.org/1999/xlink" x="0px" y="0px"
	 viewBox="0 0 99.21 99.21" style="enable-background:new 0 0 99.21 99.21;" xml:space="preserve">
<style type="text/css">
	.st0{fill-rule:evenodd;clip-rule:evenodd;}
</style>
<g>
	<path class="st0" d="M50.7,93.85c-4.74-0.19-10.58-0.82-16.17-3.05c-4-1.6-8.11-2.83-11.84-5.13c-6.06-3.75-10.32-8.99-13.47-15.24
		C6.07,64.17,4.7,57.44,4.56,50.52c-0.06-2.83,0.42-5.75,1.16-8.5c2.82-10.4,8.15-19.55,15.64-27.14
		C28.8,7.32,38.07,3.83,48.89,5.98c1.89,0.38,3.66,0.84,5.61,0.04c0.94-0.39,2.23-0.19,3.29,0.04c13.3,2.95,23.83,9.74,30.35,22.06
		c2.02,3.81,4.13,7.57,5.33,11.76c1.81,6.34,1.39,12.66-0.1,18.97c-3.19,13.58-11.51,23.29-23.12,30.45
		C64.63,92.76,58.41,93.95,50.7,93.85z M51.22,86.28c5.04,0.1,9.93-0.6,14.34-3.17c12.37-7.23,20.03-17.66,21.28-32.23
		c0.2-2.35-0.08-4.79-0.44-7.14c-0.65-4.35-3.01-8.04-4.97-11.88c-3.89-7.63-10-12.79-17.8-15.98c-2.49-1.02-5.2-1.58-7.85-2.05
		c-3.77-0.68-7.57-1.35-11.38-1.54c-7.18-0.37-13.21,2.8-17.93,7.78c-6.1,6.42-10.55,14.02-13.28,22.56
		c-1.24,3.9-1.51,7.83-0.97,11.84c0.21,1.58,0.43,3.18,0.82,4.72c2.29,9.23,6.85,16.89,15.61,21.34c2.69,1.37,5.68,2.12,8.48,3.28
		C41.66,85.67,46.39,86.22,51.22,86.28z"/>
	<path class="st0" d="M47.87,51.53c1.07,0.09,2.3,0.27,3.53,0.28c6.07,0.07,12.15,0.06,18.22,0.14c1.43,0.02,2.89,0.13,4.26,0.49
		c1.68,0.43,2.68,2.02,2.58,3.6c-0.1,1.61-1.29,2.89-3.08,3.15c-0.94,0.14-1.91,0.12-2.87,0.1c-8.47-0.17-16.93-0.35-25.4-0.56
		c-0.95-0.02-1.91-0.16-2.83-0.39c-1.01-0.25-1.65-1.01-1.77-2.04c-1.02-8.88-2.09-17.76-1.65-26.72c0.09-1.89,0.45-3.81,0.98-5.63
		c0.23-0.8,1.07-1.58,1.84-2.03c1.43-0.84,3.4,0.09,3.83,1.66c0.12,0.46,0.19,0.94,0.21,1.42c0.17,5.26,0.31,10.53,0.5,15.79
		C46.35,44.31,46.41,47.84,47.87,51.53z"/>
</g>
</svg>
