<?xml version="1.0" encoding="utf-8"?>
<!-- Generator: Adobe Illustrator 26.3.1, SVG Export Plug-In . SVG Version: 6.00 Build 0)  -->
<svg version="1.1" id="Layer_1" xmlns="http://www.w3.org/2000/svg" xmlns:xlink="http://www.w3.org/1999/xlink" x="0px" y="0px"
	 viewBox="0 0 99.2 99.2" style="enable-background:new 0 0 99.2 99.2;" xml:space="preserve">
<style type="text/css">
	.st0{fill-rule:evenodd;clip-rule:evenodd;}
	.st1{fill:none;}
</style>
<path class="st0" d="M98.9,14.5"/>
<g>
	<path class="st0" d="M65.3,25.2c-0.1,0.3-0.3,0.6-0.3,0.9c-0.6,4.5-1,4.7-5,5.3c-6.5,1-13.1,0.7-19.6,0.9c-3.9,0.1-5.8-1-6.7-5.2
		c-0.2-0.8-0.4-1.6-0.7-2.6c-3.1-0.7-6.1,0.2-9,0.6c-1.3,0.2-2.1,1.2-2.5,2.3c-0.5,1.7-1.1,3.6-1.1,5.4c-0.1,4.7,0.1,9.4,0.2,14.1
		c0.2,5,0.5,10.1,0.8,15.1c0.4,6.2,0.7,12.4,1.1,18.7c0.1,1,0.3,2,0.5,3c0.6,2.5,2.3,4.2,4.7,4.8c2.9,0.7,6,1.3,8.9,1.4
		c7.7,0.1,15.5,0,23.2-0.1c3.9-0.1,7.6-1.1,11.4-2.1c2.3-4.7,3-9.6,3.1-14.7c0-0.7-0.2-1.3-0.3-2c-0.1-2.3,0.9-3.9,2.7-4.3
		c1.9-0.4,3.7,0.8,4.3,3.3c0.4,1.6,0.7,3.3,0.6,5c-0.3,4.4-1.1,8.7-2.5,12.9c-1.4,4.4-4.2,6.9-8.9,7.7c-6,1-12,1.5-18.1,1.4
		c-5.2-0.1-10.4,0-15.7,0.1c-3.8,0.1-7.4-0.7-10.9-1.7c-5.1-1.4-8.4-4.8-9.7-10c-0.3-1.3-0.6-2.6-0.7-4c-0.4-7.9-0.8-15.8-1.2-23.7
		c-0.1-2.5-0.4-5-0.4-7.6c-0.2-6.5-0.4-13.1-0.4-19.7c0-3.5,1.3-6.6,3.6-9.2c1.6-1.9,3.5-3.1,6-3.4c3-0.3,6-0.7,9.4-1.1
		c0.7-4.4,4-7.4,7-10.5c7.3-7.6,18-3.8,22.5,2.4c0.7,0.9,1,2.1,1.4,3.2c0.5,1.6,0.9,3.2,1.3,4.8c1.7,1.2,3.4,0.4,5,0.5
		c3.5,0.1,6.6,1.1,9.3,3.5c1.6,1.4,2.6,3.1,2.9,5.2c0.5,4.1,0.1,8.1-1.2,12c-0.2,0.6-0.5,1.2-0.9,1.8c-0.7,1-2.2,1.1-3,0.2
		C75.3,38.4,75,37,75,35.5c-0.1-2.2,0-4.4-0.1-6.6c-0.1-3-1.3-4.3-4.2-4.6C69.2,24.1,68.1,24.2,65.3,25.2z M57.7,24.5
		c0.2-1.8,0.4-3.3,0.5-4.8c0.1-1.5,0.1-3,0-4.5c0-0.6-0.3-1.4-0.7-1.8c-1.5-1.8-3.3-3.4-5.6-4.1c-1.8-0.5-3.6-0.7-5.4,0
		c-5.5,2.3-8.3,9.8-5.6,15.9C46.3,25.2,51.8,25.9,57.7,24.5z"/>
	<path class="st0" d="M65.9,56.6c-0.8-2.6,0.1-4.6,2.4-6c4.9-2.9,9.8-5.8,14.9-8.5c1.7-0.9,3.8-1.3,5.8-1.5c2.1-0.2,3.5,0.9,4.2,2.9
		c1.8,5.1,1,9.8-3.2,13.3c-2.8,2.4-6.1,4.2-9.2,6.2c-0.5,0.3-1.3,0.5-1.9,0.4c-0.6-0.1-1.3-0.6-1.5-1.1c-0.2-0.5-0.2-1.4,0.2-1.8
		c0.5-0.6,1.2-1.1,1.9-1.5c2.1-1.4,4.3-2.7,6.4-4.1c0.5-0.3,0.8-0.9,0.8-1.8c-1.9,1-3.7,2-5.6,3c-1.9,1.1-3.9,2.1-5.6,3.5
		c-3,2.3-5.7,2.2-8.4-0.4l-0.2-0.3c-0.4-0.8-0.8-1.6-1.1-2.4L65.9,56.6z M70.1,54.1c0.5,1.8,1.3,2.1,2.4,1.5c4.4-2.6,8.9-5.3,13.3-8
		c0.6-0.4,1.5-0.8,0.9-2C80.8,47.7,75.8,51.3,70.1,54.1z"/>
	<path class="st0" d="M66.9,58.8c0,0,0.2,0.3,0.2,0.3c0.3,0.4,0.7,0.7,0.9,1.2c1.1,3,0.8,3.8-1.7,5.4c-1.6,1-3.2,1.9-4.7,2.8
		c-4,2.4-8.1,4.8-12.2,7.1c-1.5,0.8-3,1.4-4.6,1.9c-0.6,0.2-1.6-0.3-2.2-0.8c-0.7-0.6-0.8-1.5-0.2-2.3c0.7-1.1,1.5-2.2,2.3-3.2
		c4.3-5.2,9.5-9.4,14.5-14c1.8-1.7,3.7-2.2,5.9-0.7c0.2,0.2,0.6,0.1,1,0.1l-0.2-0.1C66.1,57.2,66.5,58,66.9,58.8z"/>
	<path class="st0" d="M52.6,33.3c2.3,0,4.7,0,7,0c2.6,0,4,1,4.1,2.7c0.1,1.5-0.9,2.7-3.1,3.3c-1.1,0.3-2.3,0.7-3.4,0.8
		c-4.8,0.4-9.7,0.7-14.5,1c-0.3,0-0.7,0-1,0c-1.9-0.2-3.3-1.5-3.4-3.1c-0.1-1.7,0.9-3.2,2.8-3.6c1.8-0.4,3.7-0.5,5.5-0.6
		c2-0.2,4-0.2,6-0.3C52.6,33.4,52.6,33.4,52.6,33.3z"/>
	<path class="st0" d="M38.4,83.2c1.5-0.6,2.3-1.2,3.2-1.3c2.5-0.2,5-0.1,7.5-0.2c3.2-0.1,6.4-0.2,9.5-0.2c1.2,0,2.3,0.1,3.5,0.4
		c0.4,0.1,0.9,0.7,0.9,1c0,0.6-0.2,1.5-0.6,1.7c-1.2,0.5-2.5,1.1-3.8,1.1c-4,0-8-0.1-12-0.3c-1.7-0.1-3.3-0.4-5-0.8
		C40.8,84.4,40,83.9,38.4,83.2z"/>
	<path class="st0" d="M38.7,48.3c0.4-0.2,0.8-0.6,1.3-0.7c5.1-1,10.3-1.2,15.5-1.1c0.6,0,1.3,0.4,1.8,0.7c0.7,0.3,0.7,1.8,0,2.2
		c-0.5,0.4-1.2,0.8-1.8,0.9C50.1,50.6,44.6,50.6,38.7,48.3z"/>
	<path class="st0" d="M32.6,77c1.9,0,3.7,1.9,3.8,4c0.1,1.9-1.6,3.6-3.4,3.6c-2.1,0-3.8-1.7-3.7-3.9C29.3,78.7,30.8,77,32.6,77z"/>
	<path class="st0" d="M32.5,73.8c-2-0.1-3.3-1.7-3.2-3.7c0.1-2.3,1.8-3.9,3.9-3.8c1.9,0.2,3.3,1.8,3.3,3.8
		C36.4,72.2,34.6,73.9,32.5,73.8z"/>
	<path class="st0" d="M35.9,58.7c-0.2,2.1-2.1,3.5-4.3,3.1c-1.6-0.3-3-1.9-2.9-3.5c0.1-1.9,2.2-3.6,4.2-3.4
		C34.7,55.1,36.1,56.8,35.9,58.7z"/>
	<path class="st0" d="M35.3,47.3c0.1,1.6-1.3,3.2-3,3.3c-1.9,0.2-3.6-1.4-3.6-3.2c0-1.5,1.3-2.9,2.8-3
		C33.5,44.1,35.2,45.4,35.3,47.3z"/>
	<path class="st0" d="M39.5,58.1c3.4-1.1,6.7-1.4,10.1-0.9c0.5,0.1,1.3,0.7,1.4,1.2c0.3,1-0.6,1.5-1.4,1.7c-0.6,0.2-1.3,0.3-2,0.3
		c-1,0-2-0.1-3-0.2c-1.5-0.2-3-0.5-4.4-0.9C40,59.3,39.8,58.7,39.5,58.1z"/>
	<path class="st1" d="M57.7,24.5c-6,1.3-11.4,0.7-16.8,0.7c-2.7-6.1,0.1-13.6,5.6-15.9c1.8-0.7,3.6-0.6,5.4,0
		c2.3,0.7,4.1,2.3,5.6,4.1c0.4,0.5,0.6,1.2,0.7,1.8c0.1,1.5,0.1,3,0,4.5C58.1,21.2,57.9,22.7,57.7,24.5z M49.4,20.6
		c2.5-0.1,4.5-2.4,4.4-5.2c-0.1-2.3-2.3-4.3-4.7-4.3c-2.8,0-5.3,2.9-5,5.8C44.3,18.9,46.9,20.7,49.4,20.6z"/>
	<path class="st1" d="M66.9,58.8c-0.4-0.8-0.8-1.6-1.1-2.4C66.1,57.2,66.5,58,66.9,58.8z"/>
	<path class="st1" d="M57.9,64.6c1.2-1.7,2.3-3.5,4.6-4.2C62.5,62.5,62.5,62.5,57.9,64.6z"/>
	<path class="st0" d="M49.4,20.6c-2.5,0.1-5.1-1.7-5.3-3.7c-0.3-2.8,2.2-5.7,5-5.8c2.4,0,4.6,2,4.7,4.3
		C53.9,18.2,51.9,20.5,49.4,20.6z M48.5,16.8c0.3-0.1,0.7-0.2,0.8-0.4c0.1-0.2-0.1-0.6-0.2-0.8c-0.3,0.2-0.7,0.4-1,0.6
		C48.2,16.4,48.4,16.6,48.5,16.8z"/>
	<path class="st1" d="M48.5,16.8c-0.2-0.2-0.3-0.4-0.5-0.6c0.3-0.2,0.7-0.4,1-0.6c0.1,0.3,0.3,0.6,0.2,0.8
		C49.2,16.6,48.8,16.7,48.5,16.8z"/>
</g>
</svg>
