<?xml version="1.0" encoding="utf-8"?>
<!-- Generator: Adobe Illustrator 26.3.1, SVG Export Plug-In . SVG Version: 6.00 Build 0)  -->
<svg version="1.1" id="Layer_1" xmlns="http://www.w3.org/2000/svg" xmlns:xlink="http://www.w3.org/1999/xlink" x="0px" y="0px"
	 viewBox="0 0 99.2 99.2" style="enable-background:new 0 0 99.2 99.2;" xml:space="preserve">
<style type="text/css">
	.st0{fill-rule:evenodd;clip-rule:evenodd;}
</style>
<g>
	<path class="st0" d="M79.5,29c0,2.6,0.1,4.6,0,6.6c-0.4,14.8-0.6,29.6-0.2,44.4c0.1,2.7,0,5.4-0.1,8.1c0,1-0.1,2-0.4,3
		c-0.5,1.6-1.8,2.6-3.4,2.5C67.2,93,59.2,94,51.1,93.7c-8.1-0.4-16.2-0.2-24.2-0.3c-2.3-0.1-4.7-0.6-7-0.7c-3.6-0.1-5-2.5-5.9-5.3
		c-0.4-1.1-0.3-2.3-0.3-3.5c-0.3-9.6-0.5-19.2-0.9-28.8c-0.3-6.9-1-13.8-1.3-20.7c-0.2-3.5,0-7.1,0.2-10.6c0.2-3.8,1.4-7.3,3.3-10.5
		c2.5-4.1,5.9-6.5,10.9-7.1C36.3,5,46.7,5.5,57.1,5.9c8.7,0.3,17.5,0,26.3,0.1c2.2,0,4.4,0.3,6.5,0.9c2.7,0.7,4.3,2.7,4.5,5.5
		c0.3,3.5,0.5,7.1-0.5,10.5c-1.2,4.5-4.2,6.8-8.8,6.7C83.4,29.5,81.7,29.2,79.5,29z M71.8,13.7c-1.9-0.1-3.4-0.1-4.8-0.1
		c-4.9-0.1-9.8,0-14.6-0.5c-8.1-0.9-16.1-0.3-24.2-0.5c-3.3-0.1-5.4,1.6-6.9,4.2c-1.5,2.5-2.3,5.2-2.5,8.1c-0.1,3-0.3,6.1-0.1,9.1
		c0.3,5.7,0.9,11.4,1.1,17.1c0.4,9.9,0.7,19.8,1,29.7c0.1,1.5-0.3,3.1,1.1,4.7c1.4,0.1,3,0.2,4.7,0.3c4.9,0.1,9.7,0.3,14.6,0.3
		c7.7,0,15.5,0,23.2-0.1c2.3,0,4.6-0.2,6.6-0.9c0.3-0.6,0.5-0.9,0.5-1.3c-0.5-22.5,0.6-45,0.4-67.6C72,15.7,71.9,15,71.8,13.7z
		 M79.5,20.9c2.5,0.7,4.5,1.4,6.8,0.6c1-2.6,1.4-5.1,0.4-7.8c-2.5-0.3-4.8-0.5-7.2,0.2C79.5,16.3,79.5,18.4,79.5,20.9z"/>
	<path class="st0" d="M44.8,44.6c-4.5-0.2-9.1-0.4-13.6-0.8c-1.5-0.1-3-0.5-4.3-1c-1.3-0.5-1.5-2.6-0.4-3.4c1.1-0.7,2.3-1.4,3.6-1.6
		c2.7-0.4,5.3-0.6,8-0.6c6.4,0.1,12.8,0.3,19.1,0.5c1.5,0.1,3,0.3,4.4,0.7c1.2,0.4,1.9,1.4,1.9,2.7c0,1.3-0.5,2.4-1.8,2.8
		c-1.4,0.5-2.9,0.8-4.4,0.9c-4.2,0.1-8.4,0-12.6,0C44.8,44.7,44.8,44.7,44.8,44.6z"/>
	<path class="st0" d="M45.8,47.8c4.2,0.2,8.4,0.4,12.6,0.7c1.3,0.1,2.7,0.3,3.9,0.9c2.2,1.1,2.2,4.1,0.1,5.3
		c-0.6,0.3-1.2,0.6-1.9,0.7c-1,0.2-2,0.3-3,0.3c-8.7-0.5-17.4-1-26.2-1.6c-1-0.1-2-0.3-2.9-0.8c-0.6-0.4-1.3-1.2-1.3-1.9
		c0-0.7,0.6-1.8,1.2-2c1.9-0.6,3.9-1.2,5.8-1.3c3.9-0.2,7.7-0.1,11.6-0.1C45.8,48,45.8,47.9,45.8,47.8z"/>
	<path class="st0" d="M50.2,79.2c-1.4,1-2.4,1.8-3.5,2.5c-1.5,0.9-3.1,0.1-3.3-1.6c0-0.2-0.1-0.3-0.1-0.5c0.4-5,5.9-8.7,10.2-6.6
		c1.2,0.6,2.4,1.2,3.8,1.9c0.8-0.9,1.5-1.7,2.3-2.6c0.9-0.9,2-1.3,3.2-0.9c1.3,0.4,1.8,1.5,2,2.7c0.9,4.5-2.7,8.5-7.3,8
		c-1.6-0.2-3.2-1-4.7-1.6C52,80.2,51.3,79.7,50.2,79.2z"/>
	<path class="st0" d="M35,72c-2.8-0.2-5-0.2-7.1-0.5c-1-0.1-2-0.4-2.9-0.8c-1.1-0.5-1.4-2.1-0.5-3c0.7-0.6,1.6-1.3,2.5-1.5
		c4.6-1.3,9.2-1.4,13.9-1.1c0.3,0,0.7,0.1,1,0.2c1.6,0.5,2.8,1.9,2.8,3.2c0,1.3-1.1,2.7-2.9,3C39.4,71.8,36.9,71.9,35,72z"/>
	<path class="st0" d="M59.3,29.1c-4.5-0.5-8.2-0.9-11.8-1.5c-0.8-0.1-1.8-0.9-2.3-1.7c-0.6-1.1-0.1-2.3,0.8-3.1
		c1.6-1.4,3.5-2,5.5-1.9c3,0.2,6,0.6,8.9,1c0.6,0.1,1.3,0.4,1.9,0.7c1.3,0.7,1.9,1.8,1.8,3.3c-0.1,1.3-1,2.6-2.4,2.9
		C60.7,29.1,59.5,29.1,59.3,29.1z"/>
</g>
</svg>
